<svg width="42" height="41" fill="none" xmlns="http://www.w3.org/2000/svg"><path d="M36.198 4.483H6.738a1.28 1.28 0 00-1.28 1.28v29.46c0 .708.572 1.28 1.28 1.28h29.46a1.28 1.28 0 001.28-1.28V5.763a1.28 1.28 0 00-1.28-1.28zM14.956 31.769h-4.75V16.487h4.75v15.282zm-2.373-17.372a2.754 2.754 0 110-5.507 2.754 2.754 0 010 5.507zm20.16 17.372h-4.746v-7.433c0-1.773-.032-4.05-2.47-4.05-2.47 0-2.85 1.928-2.85 3.922v7.56h-4.743v-15.28h4.555v2.09h.064c.633-1.202 2.181-2.47 4.495-2.47 4.811 0 5.696 3.166 5.696 7.28v8.382z" fill="#FA4A0C"/></svg>