<svg version="1.0" xmlns="http://www.w3.org/2000/svg" width="204" height="61.333" viewBox="0 0 153 46"><path d="M3.6 3.6c-2.4 2.3-2.4 37.5 0 39.8C5 44.8 13 45 77 45s72-.2 73.4-1.6c2.4-2.3 2.4-37.5 0-39.8C149 2.2 141 2 77 2S5 2.2 3.6 3.6zm22.5 12.1c6.5 3.7 11.9 7.2 11.9 7.8 0 .6-1.4 1.9-3.1 2.9-3 1.8-3.1 1.8-5.5-.5l-2.5-2.3-6.9 6.9-7 6.9V23.2c0-7.8.3-14.2.6-14.2s5.9 3 12.5 6.7zm26.1-6c-1.3.3-2.6 1.1-2.9 1.9-.7 1.9 1.1 3.9 2.7 2.9.9-.6.9-1-.1-1.7s-.6-.8 1.3-.4c2.2.5 2.5.3 2.1-1.4-.4-1.6 0-2 1.8-2 1.9 0 2.1.2.9 1-1.3.9-1.3 1.1 0 2 1 .6 1.1 1 .3 1-1.9 0-1.6 1.8.5 2.3 1.4.4 1.3.5-.3.6-1.2 0-2.6-.4-3.2-1-.8-.8-1.3-.8-1.7 0-1.1 1.7-4.4 1.3-5.5-.6-1.4-2.7.5-5.3 3.7-5.2 2.4.2 2.5.2.4.6zm12 2.3c-.6 4.3-1.9 4.6-2.4.5-.3-2.7 0-3.5 1.2-3.5 1.3 0 1.5.7 1.2 3zm5.8.5c0 1.3-.4 2.7-1 3-.6.4-1-.8-1-3s.4-3.4 1-3c.6.3 1 1.7 1 3zm4.3-2.3c-.4.7-.6 2-.5 3 .2.9-.1 1.9-.6 2.2-.6.3-1.2-1-1.4-2.9-.3-2.9-.1-3.5 1.5-3.5 1.2 0 1.6.4 1 1.2zm10.2.8c.8 2.7-1.2 5.2-3.9 4.8-2.1-.3-3.2-2.8-2.2-5.4.8-2.2 5.4-1.8 6.1.6zm3.9-.4c.8 2.2.8 2.6-.3 1.9-.5-.3-1.2.5-1.4 1.7-.3 1.5-.5.9-.6-1.5-.1-3.8 1.2-5 2.3-2.1zm2.6 2.1c0 2.3-.4 3.3-.9 2.7-.9-.8-.4-6.4.5-6.4.2 0 .4 1.7.4 3.7zm-32.4 8.9c1.8 1.4 1.7 1.5-1.6 1-3.9-.6-5.2-.1-6.7 2.9-2.7 5.1 3.9 9.7 8 5.6l2.1-2.1h-2.7c-1.5 0-2.7-.5-2.7-1 0-.6 1.6-1 3.5-1 4.1 0 4.5 1.5 1.4 5.4-2.7 3.4-7.1 3.5-10.4.1-2.9-2.8-3.1-4.5-1-8.5s6.7-5.1 10.1-2.4zM96 28c0 4-.4 7-1 7s-1-3-1-7 .4-7 1-7 1 3 1 7zm23.4-4.8c1.5 2.4-.3 5.2-3.7 5.6-1.9.2-2.7 1-2.9 2.8-.6 5.2-2.3 2.7-2.6-3.9l-.3-6.8 4.2.3c2.7.2 4.6.9 5.3 2zM123 28c0 4-.4 7-1 7s-1-3-1-7 .4-7 1-7 1 3 1 7zm-53-1.2c1.8 1.4 2.1 2.5 1.6 4.5-.7 3.1-4.8 4.6-7.1 2.7-2.1-1.7-1.9-6.7.3-7.9 2.3-1.4 2.7-1.4 5.2.7zm10.1-.8c2.3 1.3 2.6 6.2.3 8-1.1 1-2.3 1.1-4.2.4-3.6-1.3-4.2-5.6-1-7.8 2.7-1.9 2.4-1.9 4.9-.6zm11 0c.6 0 .9 2.7.7 6.2l-.3 6.3h-3.4c-1.9 0-3.6-.6-3.8-1.2-.3-.9.4-1.1 2.6-.7 2 .4 3.1.2 3.1-.5 0-.6-.9-1.1-1.9-1.1-2.4 0-5.1-3.7-4.4-5.9.8-2.3 3.5-4.2 5.1-3.6.8.3 1.8.5 2.3.5zm14.4 2c.4.6-.7 1.5-2.4 2.1-3.7 1.3-4.2 3.4-.6 2.5 2.5-.6 3.5.7 1.4 1.9-2.1 1.4-5.9-.5-6.5-3.2-1.3-5 5.4-7.7 8.1-3.3zm25.9-1.4c.9.8 1.6 3 1.6 4.9 0 3.2-.1 3.3-3.7 3.2-3.3-.2-3.8-.5-3.8-2.7 0-1.8.6-2.6 2.3-2.8 1.2-.2 2.2-.8 2.2-1.4 0-.6-1-.8-2.5-.4-2.5.6-3.6-.8-1.2-1.7 2.2-1 3.5-.7 5.1.9zm5 2.1l1.4 2.8 1.1-2.8c.6-1.5 1.5-2.7 2.1-2.7 1.4 0 1.4 0-1.6 6.9-2.8 6.4-4.7 8.1-3.8 3.3.3-1.6-.1-4.5-1-6.5-1.7-4.3-.4-5 1.8-1z"/><path d="M79.3 11.6c-.3.8-.1 2 .6 2.7 1.4 1.4 4.7-1.5 3.7-3.2-1-1.6-3.6-1.3-4.3.5zM113 25c0 1.6.5 2.1 2.3 1.8 1.2-.2 2.2-1 2.2-1.8s-1-1.6-2.2-1.8c-1.8-.3-2.3.2-2.3 1.8zm-47.6 3.5c-.9 2.1.3 4.5 2.1 4.5 2.1 0 3-2.7 1.5-4.5-1.6-1.9-2.9-1.9-3.6 0zm10.6 0c-1.6 1.9-.5 4.7 1.7 4.3 2.2-.4 2.9-4.3.9-5.1-.8-.3-2 .1-2.6.8zm10.1.3c-1.1 2 .2 4.2 2.5 4.2 1.8 0 2.6-3 1.3-4.6-1.6-1.9-2.6-1.8-3.8.4zm13.9-.3c-1.4 1.6-1 1.8 1.4.9.9-.3 1.6-1 1.6-1.5 0-1.4-1.6-1.1-3 .6zm27.6 2.2c-1.1 1.1-.6 2.3.8 2.3.8 0 1.7-.4 2-.9.7-1-1.9-2.3-2.8-1.4z"/></svg>