<?xml version="1.0" standalone="no"?>
<!DOCTYPE svg PUBLIC "-//W3C//DTD SVG 20010904//EN"
 "http://www.w3.org/TR/2001/REC-SVG-20010904/DTD/svg10.dtd">
<svg version="1.0" xmlns="http://www.w3.org/2000/svg"
 width="153.000000pt" height="46.000000pt" viewBox="0 0 153.000000 46.000000"
 preserveAspectRatio="xMidYMid meet">

<g transform="translate(0.000000,46.000000) scale(0.100000,-0.100000)"
fill="#000000" stroke="none">
<path d="M36 424 c-24 -23 -24 -375 0 -398 14 -14 94 -16 734 -16 640 0 720 2
734 16 24 23 24 375 0 398 -14 14 -94 16 -734 16 -640 0 -720 -2 -734 -16z
m225 -121 c65 -37 119 -72 119 -78 0 -6 -14 -19 -31 -29 -30 -18 -31 -18 -55
5 l-25 23 -69 -69 -70 -69 0 142 c0 78 3 142 6 142 3 0 59 -30 125 -67z m261
60 c-13 -3 -26 -11 -29 -19 -7 -19 11 -39 27 -29 9 6 9 10 -1 17 -10 7 -6 8
13 4 22 -5 25 -3 21 14 -4 16 0 20 18 20 19 0 21 -2 9 -10 -13 -9 -13 -11 0
-20 10 -6 11 -10 3 -10 -19 0 -16 -18 5 -23 14 -4 13 -5 -3 -6 -12 0 -26 4
-32 10 -8 8 -13 8 -17 0 -11 -17 -44 -13 -55 6 -14 27 5 53 37 52 24 -2 25 -2
4 -6z m120 -23 c-6 -43 -19 -46 -24 -5 -3 27 0 35 12 35 13 0 15 -7 12 -30z
m58 -5 c0 -13 -4 -27 -10 -30 -6 -4 -10 8 -10 30 0 22 4 34 10 30 6 -3 10 -17
10 -30z m43 23 c-4 -7 -6 -20 -5 -30 2 -9 -1 -19 -6 -22 -6 -3 -12 10 -14 29
-3 29 -1 35 15 35 12 0 16 -4 10 -12z m102 -8 c8 -27 -12 -52 -39 -48 -21 3
-32 28 -22 54 8 22 54 18 61 -6z m39 4 c8 -22 8 -26 -3 -19 -5 3 -12 -5 -14
-17 -3 -15 -5 -9 -6 15 -1 38 12 50 23 21z m26 -21 c0 -23 -4 -33 -9 -27 -9 8
-4 64 5 64 2 0 4 -17 4 -37z m-324 -89 c18 -14 17 -15 -16 -10 -39 6 -52 1
-67 -29 -27 -51 39 -97 80 -56 l21 21 -27 0 c-15 0 -27 5 -27 10 0 6 16 10 35
10 41 0 45 -15 14 -54 -27 -34 -71 -35 -104 -1 -29 28 -31 45 -10 85 21 40 67
51 101 24z m374 -64 c0 -40 -4 -70 -10 -70 -6 0 -10 30 -10 70 0 40 4 70 10
70 6 0 10 -30 10 -70z m234 48 c15 -24 -3 -52 -37 -56 -19 -2 -27 -10 -29 -28
-6 -52 -23 -27 -26 39 l-3 68 42 -3 c27 -2 46 -9 53 -20z m36 -48 c0 -40 -4
-70 -10 -70 -6 0 -10 30 -10 70 0 40 4 70 10 70 6 0 10 -30 10 -70z m-530 12
c18 -14 21 -25 16 -45 -7 -31 -48 -46 -71 -27 -21 17 -19 67 3 79 23 14 27 14
52 -7z m101 8 c23 -13 26 -62 3 -80 -11 -10 -23 -11 -42 -4 -36 13 -42 56 -10
78 27 19 24 19 49 6z m110 0 c6 0 9 -27 7 -62 l-3 -63 -34 0 c-19 0 -36 6 -38
12 -3 9 4 11 26 7 20 -4 31 -2 31 5 0 6 -9 11 -19 11 -24 0 -51 37 -44 59 8
23 35 42 51 36 8 -3 18 -5 23 -5z m144 -20 c4 -6 -7 -15 -24 -21 -37 -13 -42
-34 -6 -25 25 6 35 -7 14 -19 -21 -14 -59 5 -65 32 -13 50 54 77 81 33z m259
14 c9 -8 16 -30 16 -49 0 -32 -1 -33 -37 -32 -33 2 -38 5 -38 27 0 18 6 26 23
28 12 2 22 8 22 14 0 6 -10 8 -25 4 -25 -6 -36 8 -12 17 22 10 35 7 51 -9z
m50 -21 l14 -28 11 28 c6 15 15 27 21 27 14 0 14 0 -16 -69 -28 -64 -47 -81
-38 -33 3 16 -1 45 -10 65 -17 43 -4 50 18 10z"/>
<path d="M793 344 c-3 -8 -1 -20 6 -27 14 -14 47 15 37 32 -10 16 -36 13 -43
-5z"/>
<path d="M1130 210 c0 -16 5 -21 23 -18 12 2 22 10 22 18 0 8 -10 16 -22 18
-18 3 -23 -2 -23 -18z"/>
<path d="M654 175 c-9 -21 3 -45 21 -45 21 0 30 27 15 45 -16 19 -29 19 -36 0z"/>
<path d="M760 175 c-16 -19 -5 -47 17 -43 22 4 29 43 9 51 -8 3 -20 -1 -26 -8z"/>
<path d="M861 172 c-11 -20 2 -42 25 -42 18 0 26 30 13 46 -16 19 -26 18 -38
-4z"/>
<path d="M1000 175 c-14 -16 -10 -18 14 -9 9 3 16 10 16 15 0 14 -16 11 -30
-6z"/>
<path d="M1276 153 c-11 -11 -6 -23 8 -23 8 0 17 4 20 9 7 10 -19 23 -28 14z"/>
</g>
</svg>
